<svg width="9" height="18" viewBox="0 0 9 18" fill="none" xmlns="http://www.w3.org/2000/svg">
<path fill-rule="evenodd" clip-rule="evenodd" d="M6.6325 4.88249L4.1725 2.42249L1.7025 4.88249C1.3125 5.27249 0.6825 5.27249 0.2925 4.88249C-0.0975 4.49249 -0.0975 3.86249 0.2925 3.47249L3.4625 0.292486C3.64933 0.105233 3.90298 0 4.1675 0C4.43202 0 4.68567 0.105233 4.8725 0.292486L8.0425 3.47249C8.4325 3.86249 8.4325 4.49249 8.0425 4.88249C7.6525 5.27249 7.0225 5.27249 6.6325 4.88249ZM1.7125 12.3025L4.1725 14.7625L6.6425 12.3125C6.82933 12.1252 7.08298 12.02 7.3475 12.02C7.61202 12.02 7.86567 12.1252 8.0525 12.3125C8.4425 12.7025 8.4425 13.3325 8.0525 13.7225L4.8825 16.8925C4.4925 17.2825 3.8625 17.2825 3.4725 16.8925L0.3025 13.7125C-0.0875 13.3225 -0.0875 12.6925 0.3025 12.3025C0.489332 12.1152 0.742982 12.01 1.0075 12.01C1.27202 12.01 1.52567 12.1152 1.7125 12.3025Z" fill="black" fill-opacity="0.54"/>
</svg>
